<svg xmlns="http://www.w3.org/2000/svg" xmlns:xlink="http://www.w3.org/1999/xlink" width="1080" zoomAndPan="magnify" viewBox="0 0 810 809.999993" height="1080" preserveAspectRatio="xMidYMid meet" version="1.0"><defs><g/><clipPath id="id1"><path d="M 27.648438 27.648438 L 782.148438 27.648438 L 782.148438 782.148438 L 27.648438 782.148438 Z M 27.648438 27.648438 " clip-rule="nonzero"/></clipPath><clipPath id="id2"><path d="M 404.898438 27.648438 C 196.546875 27.648438 27.648438 196.546875 27.648438 404.898438 C 27.648438 613.246094 196.546875 782.148438 404.898438 782.148438 C 613.246094 782.148438 782.148438 613.246094 782.148438 404.898438 C 782.148438 196.546875 613.246094 27.648438 404.898438 27.648438 " clip-rule="nonzero"/></clipPath></defs><g clip-path="url(#id1)"><g clip-path="url(#id2)"><path stroke-linecap="butt" transform="matrix(0.749802, 0, 0, 0.749802, 27.646709, 27.646725)" fill="none" stroke-linejoin="miter" d="M 503.13519 0.0022836 C 225.259716 0.0022836 0.00230561 225.259694 0.00230561 503.135168 C 0.00230561 781.005433 225.259716 1006.268053 503.13519 1006.268053 C 781.005455 1006.268053 1006.268075 781.005433 1006.268075 503.135168 C 1006.268075 225.259694 781.005455 0.0022836 503.13519 0.0022836 " stroke="#ffffff" stroke-width="80" stroke-opacity="1" stroke-miterlimit="4"/></g></g><g fill="#ffffff" fill-opacity="1"><g transform="translate(89.61328, 529.124979)"><g><path d="M 116.875 0 L 68.4375 0 L 68.4375 -188.125 L 6.40625 -188.125 L 6.40625 -228.4375 L 178.90625 -228.4375 L 178.90625 -188.125 L 116.875 -188.125 Z M 116.875 0 "/></g></g><g transform="translate(274.922874, 529.124979)"><g><path d="M 231.40625 0 L 169.84375 0 L 70.46875 -172.8125 L 69.0625 -172.8125 C 69.476562 -165.625 69.84375 -158.382812 70.15625 -151.09375 C 70.46875 -143.800781 70.78125 -136.535156 71.09375 -129.296875 C 71.40625 -122.054688 71.71875 -114.789062 72.03125 -107.5 L 72.03125 0 L 28.75 0 L 28.75 -228.4375 L 89.84375 -228.4375 L 189.0625 -57.34375 L 190.15625 -57.34375 C 189.945312 -64.425781 189.6875 -71.457031 189.375 -78.4375 C 189.0625 -85.414062 188.773438 -92.394531 188.515625 -99.375 C 188.253906 -106.351562 188.019531 -113.332031 187.8125 -120.3125 L 187.8125 -228.4375 L 231.40625 -228.4375 Z M 231.40625 0 "/></g></g><g transform="translate(535.075046, 529.124979)"><g><path d="M 177.65625 0 L 7.65625 0 L 7.65625 -31.40625 L 117.1875 -188.4375 L 10.625 -188.4375 L 10.625 -228.4375 L 174.6875 -228.4375 L 174.6875 -197.1875 L 65.3125 -40 L 177.65625 -40 Z M 177.65625 0 "/></g></g></g></svg>